<?xml version="1.0" encoding="utf-8"?>
<!-- Generator: Adobe Illustrator 23.1.0, SVG Export Plug-In . SVG Version: 6.00 Build 0)  -->
<svg version="1.1" id="Laag_1" xmlns="http://www.w3.org/2000/svg" xmlns:xlink="http://www.w3.org/1999/xlink" x="0px" y="0px"
	 viewBox="0 0 600 389.3" style="enable-background:new 0 0 600 389.3;" xml:space="preserve">
<style type="text/css">
	.st0{fill:#6D75E5;}
</style>
<path class="st0" d="M534,0H66.2c-12,0-21.7,9.7-21.7,21.7V323h511.2V21.7C555.7,9.7,546,0,534,0z M534,304.3H66.2V21.7H534V304.3z"
	/>
<path class="st0" d="M597.7,364.6l-42.2-30.5H276.7v0.1H44.6L2.3,364.6c0,0-2.3,1.7-2.3,4.7c0,1.2,0,8.2,0,11.7
	c0,3.5,2.3,8.2,8.2,8.2h294.8v-0.1h288.7c5.9,0,8.2-4.7,8.2-8.2s0-10.6,0-11.7C600,366.3,597.7,364.6,597.7,364.6z M341.3,373.1
	c0,1.3-1.1,2.3-2.3,2.3h-81c-1.3,0-2.3-1.1-2.3-2.3v-3.7c0-1.3,1.1-2.3,2.3-2.3h81c1.3,0,2.3,1.1,2.3,2.3V373.1z"/>
</svg>
