<?xml version="1.0" encoding="utf-8"?>
<svg version="1.1" xmlns="http://www.w3.org/2000/svg" xmlns:xlink="http://www.w3.org/1999/xlink" x="0px" y="0px"
	 viewBox="0 0 448 512" style="enable-background:new 0 0 448 512;" xml:space="preserve">
<path fill="#6d75e5" d="M256,416c0,17.7-14.3,32-32,32s-32-14.3-32-32c0-21.3,14.3-32,32-32S256,398.3,256,416z M448,48v416c0,26.5-21.5,48-48,48
	H48c-26.5,0-48-21.5-48-48V48C0,21.5,21.5,0,48,0h352C426.5,0,448,21.5,448,48z M416,48c0-8.8-7.2-16-16-16H48c-8.8,0-16,7.2-16,16
	v416c0,8.8,7.2,16,16,16h352c8.8,0,16-7.2,16-16V48z"/>
</svg>
